<?xml version="1.0" standalone="no"?><!DOCTYPE svg PUBLIC "-//W3C//DTD SVG 1.1//EN" "http://www.w3.org/Graphics/SVG/1.1/DTD/svg11.dtd"><svg t="1505221231636" class="icon" style="" viewBox="0 0 1024 1024" version="1.1" xmlns="http://www.w3.org/2000/svg" p-id="5683" xmlns:xlink="http://www.w3.org/1999/xlink" width="200" height="200"><defs><style type="text/css"></style></defs><path d="M917.333333 149.333333H106.666667a107.946667 107.946667 0 0 0-106.666667 106.666667v512a107.946667 107.946667 0 0 0 106.666667 106.666667h810.666666a107.946667 107.946667 0 0 0 106.666667-106.666667V256a107.946667 107.946667 0 0 0-106.666667-106.666667zM106.666667 192h810.666666a65.066667 65.066667 0 0 1 64 64v106.666667H42.666667v-106.666667a65.066667 65.066667 0 0 1 64-64z m810.666666 640H106.666667a65.066667 65.066667 0 0 1-64-64V405.333333h938.666666v362.666667a65.066667 65.066667 0 0 1-64 64z" fill="" p-id="5684"></path><path d="M128 533.333333h213.333333v42.666667H128z" fill="" p-id="5685"></path></svg>