<svg t="1505225100298" class="icon" style="" viewBox="0 0 1024 1024" version="1.1" xmlns="http://www.w3.org/2000/svg" p-id="7118" xmlns:xlink="http://www.w3.org/1999/xlink" width="200" height="200"><defs><style type="text/css"></style></defs><path d="M512 0C229.2 0 0 229.2 0 512s229.2 512 512 512 512-229.2 512-512S794.8 0 512 0zM512 960c-115 0-219.8-43.3-299.1-114.5C283.5 761.3 393.8 704 512 704c118.2 0 228.6 57.3 299.2 141.5C731.9 916.7 627 960 512 960zM857 797.8C774.6 702.7 647.5 640 512 640c-135.4 0-259.4 66.6-341.7 161.8C104 723.7 64 622.5 64 512 64 264.6 264.6 64 512 64s448 200.6 448 448C960 620.6 921.3 720.3 857 797.8zM704 448c0-106-86-192-192-192s-192 86-192 192c0 106 86 192 192 192S704 554 704 448zM512 576c-70.7 0-128-57.3-128-128 0-70.7 57.3-128 128-128s128 57.3 128 128C640 518.7 582.7 576 512 576z" p-id="7119"></path></svg>