<svg t="1505220661655" class="icon" style="" viewBox="0 0 1024 1024" version="1.1" xmlns="http://www.w3.org/2000/svg" p-id="1683" xmlns:xlink="http://www.w3.org/1999/xlink" width="200" height="200"><defs><style type="text/css"></style></defs><path d="M320 64h-256v256h256v-256zM384 0v384H0V0h384z m-256 128H256V256H128V128z m832-64h-256v256h256v-256zM1024 0v384H640V0H1024z m-256 128h128V256H768V128zM320 704h-256v256h256v-256z m64-64V1024H0V640h384z m-256 128H256v128H128V768zM448 0H512v64h-64V0zM512 64h64V128H512V64zM448 128H512v64h-64V128zM512 192h64V256H512V192zM448 256H512v64h-64V256zM512 320h64v64H512v-64z m-64 64H512v64h-64V384z m0 128H512v64h-64V512zM512 576h64v64H512v-64z m-64 64H512v64h-64V640zM512 704h64V768H512v-64zM448 768H512v64h-64V768zM512 832h64v64H512v-64z m-64 64H512v64h-64V896zM512 960h64V1024H512v-64zM960 512H1024v64h-64V512z m-896 0H128v64H64V512z m64-64h64V512H128v-64z m-128 0h64V512H0v-64z m256 0h64V512H256v-64zM320 512h64v64h-64V512z m64-64h64V512H384v-64zM576 512h64v64h-64V512z m64-64h64V512H640v-64zM704 512H768v64h-64V512z m64-64h64V512H768v-64zM832 512h64v64h-64V512z m64-64h64V512H896v-64z m64 192H1024v64h-64V640z m-384 0h64v64h-64V640z m64-64h64v64H640v-64z m64 64H768v64h-64V640z m128 0h64v64h-64V640z m64-64h64v64H896v-64z m64 192H1024v64h-64V768z m-384 0h64v64h-64V768z m64-64h64V768H640v-64z m128 0h64V768H768v-64z m64 64h64v64h-64V768z m64-64h64V768H896v-64z m64 192H1024v64h-64V896zM640 832h64v64H640v-64z m64 64H768v64h-64V896z m64-64h64v64H768v-64z m64 64h64v64h-64V896z m-192 64h64V1024H640v-64z m128 0h64V1024H768v-64z m128 0h64V1024H896v-64z" fill="#2F4050" p-id="1684"></path></svg>