
<svg t="1505220555486" class="icon" style="" viewBox="0 0 1024 1024" version="1.1" xmlns="http://www.w3.org/2000/svg" p-id="1002" xmlns:xlink="http://www.w3.org/1999/xlink" width="200" height="200"><defs><style type="text/css"></style></defs><path d="M645.623323 141.065829l207.998241 0c18.907629 0 30.252001 10.085706 30.252001 30.254048l0 177.74317c0 18.908652 20.169365 26.471908 40.340777 26.471908 20.167319 0 34.034141-15.127536 34.034141-34.035164L958.248484 168.798451c0-56.726979-45.379537-102.107539-102.105492-102.107539L648.143727 66.690912c-18.908652 0-34.034141 15.126512-34.034141 34.034141C614.108562 119.635751 626.713648 141.065829 645.623323 141.065829L645.623323 141.065829zM349.384365 882.293581 170.381505 882.293581c-18.908652 0-30.256094-10.084683-30.256094-30.254048L140.125411 689.422875c0-18.907629-20.168342-41.59842-40.337707-41.59842-20.168342 0-32.774451 15.125489-32.774451 34.034141l0 170.178891c0 56.728002 45.38056 102.109586 102.107539 102.109586l170.178891 0c18.908652 0 34.035164-15.126512 34.035164-34.035164C375.857297 903.723659 368.291994 882.293581 349.384365 882.293581L349.384365 882.293581zM101.047394 375.535979c18.908652 0 40.339754-22.689768 40.339754-41.600467L141.387148 170.060187c0-18.908652 10.084683-30.254048 30.253024-30.254048L334.25683 139.806139c18.908652 0 41.59842-20.169365 41.59842-40.339754s-15.126512-32.774451-34.035164-32.774451L169.119769 66.691935c-56.726979 0-102.107539 45.381583-102.107539 102.107539l0 170.179914C67.01223 359.148753 82.138742 375.535979 101.047394 375.535979L101.047394 375.535979zM922.953629 647.824455c-18.908652 0-40.339754 22.690792-40.339754 41.59842L882.613876 852.03851c0 18.908652-10.084683 30.254048-30.253024 30.254048L645.623323 882.292558c-18.908652 0-31.513738 20.168342-31.513738 40.340777 0 20.167319 15.125489 34.034141 34.034141 34.034141l204.217125 0c56.726979 0 102.106516-45.381583 102.106516-102.107539L954.467367 681.858596C956.988794 664.21168 941.861258 647.824455 922.953629 647.824455L922.953629 647.824455zM964.553073 481.426681 59.44795 481.426681c-20.168342 0-36.557614 16.387225-36.557614 36.556591s16.388249 36.556591 36.557614 36.556591l905.104099 0c20.168342 0 36.556591-16.387225 36.556591-36.556591S984.721415 481.426681 964.553073 481.426681L964.553073 481.426681z" p-id="1003"></path></svg>