<svg t="1505220931480" class="icon" style="" viewBox="0 0 1131 1024" version="1.1" xmlns="http://www.w3.org/2000/svg" p-id="2343" xmlns:xlink="http://www.w3.org/1999/xlink" width="220.8984375" height="200"><defs><style type="text/css"></style></defs><path d="M1024.070626 1024.000021 105.885398 1024.000021C47.489601 1024.000021 0 976.51042 0 918.114623L0 353.604272C0 295.349656 47.295478 248.001235 105.461856 247.754169L140.756989 247.842407 140.756989 105.885384C140.756989 47.489587 188.264237-1.4e-05 246.642387-1.4e-05L253.983774 0.758831 1043.447653 159.516338C1122.791112 180.711065 1129.814843 241.577521 1129.303063 267.678272L1129.956023 918.114623C1129.956023 976.51042 1082.466422 1024.000021 1024.070626 1024.000021ZM243.589358 70.731432C225.553545 72.284417 211.347254 87.443677 211.347254 105.885384L211.347254 247.718874 988.228418 247.718874C1016.482172 248.089473 1022.552935 228.447732 1022.270574 228.306551L243.589358 70.731432ZM1059.365758 283.13754C1059.365758 306.502918 1022.976476 318.309139 988.334304 318.309139L105.885398 318.309139C86.402485 318.309139 70.590265 334.121359 70.590265 353.604272L70.590265 918.114623C70.590265 937.597536 86.402485 953.409756 105.885398 953.409756L1024.070626 953.409756C1043.553539 953.409756 1059.365758 937.597536 1059.365758 918.114623L1059.365758 283.13754ZM211.841386 706.679131C172.857912 706.679131 141.251121 675.07234 141.251121 636.088866 141.251121 597.105392 172.857912 565.498601 211.841386 565.498601 250.82486 565.498601 282.431651 597.105392 282.431651 636.088866 282.431651 675.07234 250.82486 706.679131 211.841386 706.679131Z" p-id="2344"></path></svg>